<svg xmlns="http://www.w3.org/2000/svg" xmlns:xlink="http://www.w3.org/1999/xlink" width="1080" zoomAndPan="magnify" viewBox="0 0 810 1439.999935" height="1920" preserveAspectRatio="xMidYMid meet" version="1.0"><defs><clipPath id="4768bea0e9"><path d="M 18 774.496094 L 402 774.496094 L 402 1354.035156 L 18 1354.035156 Z M 18 774.496094 " clip-rule="nonzero"/></clipPath><clipPath id="a884c1ac8d"><path d="M 403 774.285156 L 787 774.285156 L 787 1354.035156 L 403 1354.035156 Z M 403 774.285156 " clip-rule="nonzero"/></clipPath><clipPath id="074b45a4e0"><path d="M 408 85.960938 L 792 85.960938 L 792 665.5 L 408 665.5 Z M 408 85.960938 " clip-rule="nonzero"/></clipPath><clipPath id="d0dcc4d3f0"><path d="M 23 85.75 L 407 85.75 L 407 665.5 L 23 665.5 Z M 23 85.75 " clip-rule="nonzero"/></clipPath></defs><rect x="-81" width="972" fill="#ffffff" y="-143.999994" height="1727.999922" fill-opacity="1"/><rect x="-81" width="972" fill="#1c1534" y="-143.999994" height="1727.999922" fill-opacity="1"/><g clip-path="url(#4768bea0e9)"><path fill="#f2f2f2" d="M 80.601562 1208.613281 C 76.613281 1208.613281 76.609375 1214.804688 80.601562 1214.804688 C 84.59375 1214.804688 84.589844 1208.613281 80.601562 1208.613281 Z M 105.460938 1237.238281 C 105.175781 1237.410156 104.863281 1237.496094 104.527344 1237.496094 C 104.191406 1237.496094 103.878906 1237.410156 103.589844 1237.238281 L 102.996094 1236.84375 C 102.695312 1236.664062 102.457031 1236.425781 102.28125 1236.125 C 102.097656 1235.8125 102.007812 1235.476562 102.007812 1235.117188 C 102.015625 1234.566406 102.207031 1234.097656 102.585938 1233.699219 C 102.988281 1233.335938 103.457031 1233.144531 104 1233.121094 C 104.355469 1233.121094 104.6875 1233.210938 104.996094 1233.386719 C 105.304688 1233.5625 105.546875 1233.804688 105.726562 1234.113281 L 106.121094 1234.703125 C 106.296875 1234.992188 106.382812 1235.304688 106.382812 1235.640625 C 106.382812 1235.976562 106.296875 1236.289062 106.121094 1236.578125 C 105.960938 1236.851562 105.738281 1237.074219 105.464844 1237.238281 Z M 84.699219 1249.328125 C 80.707031 1249.328125 80.710938 1243.132812 84.699219 1243.132812 C 88.691406 1243.132812 88.695312 1249.328125 84.699219 1249.328125 Z M 99.914062 1197.84375 C 95.921875 1197.84375 95.921875 1191.652344 99.914062 1191.652344 C 103.902344 1191.652344 103.910156 1197.84375 99.914062 1197.84375 Z M 210.484375 1226.699219 C 206.492188 1226.699219 206.492188 1220.507812 210.484375 1220.507812 C 214.476562 1220.507812 214.476562 1226.699219 210.484375 1226.699219 Z M 201.707031 1238.992188 C 197.714844 1238.992188 197.714844 1232.796875 201.707031 1232.796875 C 205.699219 1232.796875 205.699219 1238.992188 201.707031 1238.992188 Z M 230.960938 1250.691406 C 226.96875 1250.691406 226.96875 1244.5 230.960938 1244.5 C 234.953125 1244.5 234.953125 1250.691406 230.960938 1250.691406 Z M 260.371094 1354.246094 C 256.378906 1354.246094 256.378906 1348.050781 260.371094 1348.050781 C 264.363281 1348.050781 264.363281 1354.246094 260.371094 1354.246094 Z M 262.125 1332.597656 C 258.132812 1332.597656 258.132812 1326.402344 262.125 1326.402344 C 266.117188 1326.402344 266.117188 1332.597656 262.125 1332.597656 Z M 351.988281 1344.371094 C 351.824219 1344.464844 351.648438 1344.523438 351.457031 1344.539062 C 351.390625 1344.613281 351.316406 1344.675781 351.238281 1344.730469 C 350.996094 1344.871094 350.738281 1344.933594 350.460938 1344.917969 C 350.183594 1344.898438 349.9375 1344.804688 349.714844 1344.636719 C 349.496094 1344.464844 349.339844 1344.25 349.253906 1343.988281 C 349.164062 1343.722656 349.15625 1343.457031 349.230469 1343.191406 L 349.246094 1343.191406 C 349.328125 1342.890625 349.476562 1342.632812 349.691406 1342.410156 C 349.90625 1342.1875 350.164062 1342.03125 350.460938 1341.945312 C 350.867188 1341.8125 351.269531 1341.816406 351.667969 1341.960938 C 352.003906 1342.066406 352.269531 1342.269531 352.457031 1342.566406 C 352.546875 1342.714844 352.601562 1342.878906 352.625 1343.050781 C 352.652344 1343.226562 352.640625 1343.394531 352.597656 1343.566406 C 352.550781 1343.734375 352.476562 1343.890625 352.371094 1344.027344 C 352.265625 1344.167969 352.136719 1344.28125 351.988281 1344.371094 Z M 284.101562 1265.476562 C 280.109375 1265.476562 280.109375 1259.28125 284.101562 1259.28125 C 288.09375 1259.28125 288.089844 1265.476562 284.101562 1265.476562 Z M 358.660156 1295.398438 C 362.644531 1295.398438 362.652344 1301.589844 358.660156 1301.589844 C 354.667969 1301.589844 354.671875 1295.398438 358.660156 1295.398438 Z M 225.816406 793.789062 C 221.824219 793.789062 221.824219 787.597656 225.816406 787.597656 C 229.808594 787.597656 229.808594 793.789062 225.816406 793.789062 Z M 223.632812 817.261719 C 219.640625 817.261719 219.640625 811.066406 223.632812 811.066406 C 227.625 811.066406 227.625 817.261719 223.632812 817.261719 Z M 236.734375 813.984375 C 232.742188 813.984375 232.746094 807.792969 236.734375 807.792969 C 240.726562 807.792969 240.726562 813.984375 236.734375 813.984375 Z M 340.453125 783.417969 C 336.460938 783.417969 336.460938 777.222656 340.453125 777.222656 C 344.445312 777.222656 344.445312 783.417969 340.453125 783.417969 Z M 336.089844 810.710938 C 332.097656 810.710938 332.09375 804.519531 336.089844 804.519531 C 340.082031 804.519531 340.078125 810.710938 336.085938 810.710938 Z M 362.292969 780.6875 C 358.300781 780.6875 358.300781 774.496094 362.292969 774.496094 C 366.285156 774.496094 366.28125 780.6875 362.289062 780.6875 Z M 337.527344 1117.964844 C 341.511719 1117.964844 341.519531 1124.15625 337.527344 1124.15625 C 333.535156 1124.15625 333.53125 1117.964844 337.523438 1117.964844 Z M 326.238281 1168.648438 C 322.246094 1168.648438 322.246094 1162.457031 326.238281 1162.457031 C 330.230469 1162.457031 330.222656 1168.648438 326.234375 1168.648438 Z M 358.109375 1163.335938 C 354.117188 1163.335938 354.121094 1157.144531 358.109375 1157.144531 C 362.101562 1157.144531 362.097656 1163.335938 358.105469 1163.335938 Z M 123.71875 1282.609375 C 123.886719 1282.894531 123.992188 1283.203125 124.035156 1283.53125 C 124.082031 1283.863281 124.0625 1284.1875 123.980469 1284.507812 C 123.894531 1284.828125 123.75 1285.121094 123.550781 1285.386719 C 123.351562 1285.652344 123.105469 1285.867188 122.820312 1286.035156 L 122.222656 1286.289062 C 121.890625 1286.394531 121.558594 1286.410156 121.222656 1286.332031 C 121.136719 1286.324219 121.050781 1286.308594 120.964844 1286.289062 L 120.949219 1286.289062 L 120.421875 1286.21875 L 119.949219 1286.015625 C 119.722656 1285.894531 119.539062 1285.726562 119.398438 1285.507812 C 119.273438 1285.386719 119.1875 1285.242188 119.144531 1285.074219 C 119.050781 1284.917969 119.007812 1284.753906 119.007812 1284.574219 C 118.960938 1284.398438 118.960938 1284.226562 119.007812 1284.050781 C 119.015625 1283.914062 119.039062 1283.785156 119.082031 1283.65625 L 119.144531 1283.191406 C 119.21875 1282.871094 119.367188 1282.589844 119.589844 1282.347656 C 119.769531 1282.070312 120.003906 1281.855469 120.292969 1281.699219 C 120.578125 1281.519531 120.886719 1281.417969 121.222656 1281.402344 C 121.71875 1281.34375 122.195312 1281.425781 122.644531 1281.640625 C 123.097656 1281.859375 123.453125 1282.183594 123.71875 1282.609375 Z M 102.328125 1297.527344 C 102.359375 1297.527344 102.394531 1297.527344 102.429688 1297.527344 C 102.910156 1297.519531 103.402344 1297.484375 103.882812 1297.507812 C 104.394531 1297.523438 104.871094 1297.652344 105.320312 1297.894531 C 105.472656 1297.976562 105.609375 1298.078125 105.734375 1298.195312 C 105.855469 1298.316406 105.964844 1298.445312 106.054688 1298.59375 C 106.148438 1298.738281 106.21875 1298.890625 106.273438 1299.054688 C 106.324219 1299.21875 106.355469 1299.386719 106.367188 1299.558594 C 106.375 1299.730469 106.367188 1299.898438 106.332031 1300.066406 C 106.300781 1300.234375 106.25 1300.398438 106.175781 1300.554688 C 106.101562 1300.710938 106.011719 1300.851562 105.902344 1300.984375 C 105.792969 1301.117188 105.671875 1301.234375 105.53125 1301.335938 C 105.0625 1301.675781 104.539062 1301.855469 103.960938 1301.878906 C 103.449219 1301.902344 102.9375 1301.898438 102.429688 1301.867188 C 102.140625 1301.875 101.863281 1301.824219 101.59375 1301.722656 C 101.324219 1301.617188 101.085938 1301.464844 100.878906 1301.265625 C 100.671875 1301.066406 100.507812 1300.835938 100.390625 1300.574219 C 100.277344 1300.308594 100.214844 1300.035156 100.207031 1299.746094 C 100.199219 1299.460938 100.25 1299.179688 100.351562 1298.914062 C 100.457031 1298.644531 100.609375 1298.40625 100.808594 1298.199219 C 101.007812 1297.988281 101.238281 1297.828125 101.5 1297.710938 C 101.765625 1297.59375 102.039062 1297.535156 102.328125 1297.527344 Z M 152.902344 1284.199219 C 148.910156 1284.199219 148.910156 1278.003906 152.902344 1278.003906 C 156.894531 1278.003906 156.902344 1284.199219 152.902344 1284.199219 Z M 126.019531 1250.898438 L 126.617188 1250.167969 C 126.828125 1249.953125 127.082031 1249.820312 127.378906 1249.761719 C 127.671875 1249.703125 127.960938 1249.730469 128.238281 1249.84375 C 128.515625 1249.960938 128.738281 1250.140625 128.90625 1250.390625 C 129.070312 1250.640625 129.15625 1250.917969 129.15625 1251.21875 C 129.160156 1251.632812 129.015625 1251.980469 128.71875 1252.269531 L 127.988281 1252.867188 C 127.707031 1253.121094 127.378906 1253.257812 127.003906 1253.273438 C 126.820312 1253.273438 126.640625 1253.238281 126.472656 1253.167969 C 126.300781 1253.097656 126.152344 1252.996094 126.019531 1252.867188 C 125.890625 1252.734375 125.789062 1252.585938 125.71875 1252.414062 C 125.648438 1252.242188 125.613281 1252.066406 125.613281 1251.882812 L 125.664062 1251.511719 C 125.726562 1251.277344 125.847656 1251.074219 126.019531 1250.898438 Z M 210.015625 1345.078125 C 214 1345.078125 214.007812 1351.269531 210.015625 1351.269531 C 206.023438 1351.269531 206.023438 1345.078125 210.015625 1345.078125 Z M 398.621094 1289.511719 C 394.628906 1289.511719 394.628906 1283.316406 398.621094 1283.316406 C 402.613281 1283.316406 402.605469 1289.511719 398.621094 1289.511719 Z M 368.734375 1317.910156 C 368.964844 1317.902344 369.1875 1317.941406 369.402344 1318.023438 C 369.617188 1318.101562 369.808594 1318.222656 369.976562 1318.382812 C 370.140625 1318.539062 370.269531 1318.726562 370.363281 1318.9375 C 370.453125 1319.148438 370.503906 1319.367188 370.503906 1319.597656 C 370.507812 1319.828125 370.464844 1320.050781 370.378906 1320.261719 C 370.292969 1320.476562 370.167969 1320.664062 370.003906 1320.828125 C 369.84375 1320.988281 369.65625 1321.113281 369.441406 1321.199219 C 369.226562 1321.289062 369.007812 1321.328125 368.777344 1321.328125 C 368.546875 1321.324219 368.324219 1321.277344 368.113281 1321.183594 C 367.902344 1321.09375 367.71875 1320.964844 367.558594 1320.796875 C 367.402344 1320.628906 367.28125 1320.4375 367.199219 1320.222656 C 367.117188 1320.007812 367.082031 1319.785156 367.089844 1319.554688 C 367.097656 1319.339844 367.144531 1319.132812 367.230469 1318.9375 C 367.316406 1318.738281 367.4375 1318.5625 367.589844 1318.410156 C 367.742188 1318.257812 367.917969 1318.140625 368.113281 1318.054688 C 368.3125 1317.96875 368.519531 1317.917969 368.734375 1317.910156 Z M 137.691406 1098.050781 L 137.320312 1098.191406 C 131.1875 1100.460938 131.148438 1088.519531 137.320312 1090.804688 L 137.691406 1090.945312 C 138.070312 1091.0625 138.421875 1091.238281 138.746094 1091.46875 C 139.066406 1091.699219 139.347656 1091.972656 139.582031 1092.292969 C 139.816406 1092.613281 139.996094 1092.960938 140.121094 1093.335938 C 140.246094 1093.714844 140.304688 1094.101562 140.304688 1094.496094 C 140.304688 1094.894531 140.246094 1095.28125 140.121094 1095.660156 C 139.996094 1096.035156 139.816406 1096.382812 139.582031 1096.703125 C 139.347656 1097.023438 139.066406 1097.296875 138.746094 1097.527344 C 138.421875 1097.757812 138.070312 1097.933594 137.691406 1098.050781 Z M 124.34375 1124.15625 C 120.351562 1124.15625 120.351562 1117.964844 124.34375 1117.964844 C 128.335938 1117.964844 128.335938 1124.15625 124.34375 1124.15625 Z M 129.230469 866.453125 C 129.046875 867.054688 128.691406 867.523438 128.15625 867.851562 C 127.585938 868.171875 126.984375 868.25 126.351562 868.082031 C 125.863281 867.953125 125.417969 867.734375 125.011719 867.433594 C 124.667969 867.175781 124.382812 866.859375 124.160156 866.492188 C 124.085938 866.375 124.015625 866.25 123.941406 866.132812 C 123.542969 865.4375 123.445312 864.703125 123.652344 863.929688 C 123.765625 863.535156 123.953125 863.183594 124.21875 862.875 C 124.480469 862.5625 124.796875 862.316406 125.164062 862.140625 C 125.535156 861.964844 125.921875 861.871094 126.328125 861.859375 C 126.738281 861.851562 127.128906 861.921875 127.507812 862.078125 C 127.863281 862.195312 128.171875 862.390625 128.425781 862.667969 C 128.78125 863.023438 129.023438 863.445312 129.160156 863.929688 L 129.160156 863.9375 C 129.355469 864.355469 129.457031 864.800781 129.460938 865.265625 C 129.445312 865.671875 129.367188 866.070312 129.230469 866.453125 Z M 192.753906 926.925781 C 188.765625 926.925781 188.761719 920.730469 192.753906 920.730469 C 196.746094 920.730469 196.746094 926.925781 192.753906 926.925781 Z M 215.328125 900.363281 C 211.335938 900.363281 211.335938 894.167969 215.328125 894.167969 C 219.320312 894.167969 219.320312 900.363281 215.328125 900.363281 Z M 221.96875 930.246094 C 217.976562 930.246094 217.976562 924.054688 221.96875 924.054688 C 225.960938 924.054688 225.960938 930.246094 221.96875 930.246094 Z M 101.769531 816.144531 C 97.777344 816.144531 97.777344 809.953125 101.769531 809.953125 C 105.761719 809.953125 105.765625 816.144531 101.769531 816.144531 Z M 40.671875 964.105469 C 40.433594 964.113281 40.207031 964.078125 39.984375 963.992188 C 39.761719 963.910156 39.566406 963.785156 39.394531 963.621094 C 39.222656 963.457031 39.089844 963.269531 38.996094 963.050781 C 38.902344 962.835938 38.855469 962.609375 38.851562 962.371094 C 38.847656 962.136719 38.890625 961.90625 38.980469 961.6875 C 39.070312 961.46875 39.199219 961.273438 39.367188 961.109375 C 39.53125 960.941406 39.726562 960.8125 39.945312 960.722656 C 40.164062 960.632812 40.390625 960.589844 40.628906 960.59375 C 40.867188 960.597656 41.09375 960.644531 41.308594 960.738281 C 41.527344 960.835938 41.714844 960.96875 41.878906 961.136719 C 42.042969 961.308594 42.167969 961.507812 42.25 961.726562 C 42.335938 961.949219 42.371094 962.175781 42.363281 962.414062 C 42.355469 962.636719 42.308594 962.847656 42.21875 963.050781 C 42.128906 963.253906 42.007812 963.433594 41.851562 963.59375 C 41.691406 963.75 41.511719 963.871094 41.308594 963.960938 C 41.105469 964.050781 40.894531 964.097656 40.671875 964.105469 Z M 368.070312 1005.949219 C 364.078125 1005.949219 364.078125 999.757812 368.070312 999.757812 C 372.0625 999.757812 372.0625 1005.949219 368.070312 1005.949219 Z M 368.070312 1029.195312 C 364.078125 1029.195312 364.078125 1023 368.070312 1023 C 372.0625 1023 372.0625 1029.195312 368.070312 1029.195312 Z M 278.347656 1094.117188 C 274.355469 1094.117188 274.355469 1087.925781 278.347656 1087.925781 C 282.339844 1087.925781 282.339844 1094.117188 278.347656 1094.117188 Z M 275.574219 1225.472656 C 271.582031 1225.472656 271.582031 1219.277344 275.574219 1219.277344 C 279.566406 1219.277344 279.566406 1225.472656 275.574219 1225.472656 Z M 53.183594 1002.269531 C 49.191406 1002.269531 49.191406 996.074219 53.183594 996.074219 C 57.175781 996.074219 57.175781 1002.269531 53.183594 1002.269531 Z M 21.910156 1058.074219 C 17.917969 1058.074219 17.917969 1051.882812 21.910156 1051.882812 C 25.902344 1051.882812 25.902344 1058.074219 21.910156 1058.074219 Z M 45.34375 1344.828125 C 41.355469 1344.828125 41.351562 1338.636719 45.34375 1338.636719 C 49.335938 1338.636719 49.335938 1344.828125 45.34375 1344.828125 Z M 28.988281 1322.046875 C 24.996094 1322.046875 24.996094 1315.855469 28.988281 1315.855469 C 32.980469 1315.855469 32.980469 1322.046875 28.988281 1322.046875 Z M 48.847656 1073.78125 C 44.855469 1073.78125 44.859375 1067.589844 48.847656 1067.589844 C 52.839844 1067.589844 52.84375 1073.78125 48.847656 1073.78125 Z M 371.738281 1102.234375 C 367.746094 1102.234375 367.746094 1096.039062 371.738281 1096.039062 C 375.730469 1096.039062 375.730469 1102.234375 371.738281 1102.234375 Z M 371.738281 1102.234375 " fill-opacity="1" fill-rule="nonzero"/></g><g clip-path="url(#a884c1ac8d)"><path fill="#f2f2f2" d="M 465.488281 919.917969 C 461.496094 919.917969 461.496094 913.722656 465.488281 913.722656 C 469.480469 913.722656 469.476562 919.917969 465.488281 919.917969 Z M 490.347656 891.292969 C 490.058594 891.117188 489.75 891.03125 489.410156 891.03125 C 489.074219 891.03125 488.765625 891.117188 488.476562 891.292969 L 487.882812 891.6875 C 487.582031 891.863281 487.34375 892.101562 487.164062 892.40625 C 486.984375 892.714844 486.890625 893.050781 486.894531 893.414062 C 486.902344 893.960938 487.09375 894.433594 487.472656 894.828125 C 487.875 895.191406 488.34375 895.386719 488.886719 895.40625 C 489.242188 895.40625 489.574219 895.320312 489.882812 895.140625 C 490.191406 894.964844 490.433594 894.722656 490.613281 894.417969 L 491.007812 893.824219 C 491.179688 893.535156 491.265625 893.222656 491.265625 892.886719 C 491.265625 892.550781 491.179688 892.238281 491.007812 891.953125 C 490.84375 891.675781 490.625 891.457031 490.351562 891.292969 Z M 469.585938 879.203125 C 465.59375 879.203125 465.597656 885.394531 469.585938 885.394531 C 473.578125 885.394531 473.578125 879.203125 469.585938 879.203125 Z M 484.800781 930.683594 C 480.804688 930.683594 480.808594 936.875 484.800781 936.875 C 488.789062 936.875 488.796875 930.683594 484.800781 930.683594 Z M 595.371094 901.828125 C 591.378906 901.828125 591.378906 908.023438 595.371094 908.023438 C 599.363281 908.023438 599.363281 901.828125 595.371094 901.828125 Z M 586.59375 889.539062 C 582.601562 889.539062 582.601562 895.730469 586.59375 895.730469 C 590.585938 895.730469 590.585938 889.539062 586.59375 889.539062 Z M 615.847656 877.835938 C 611.855469 877.835938 611.855469 884.03125 615.847656 884.03125 C 619.839844 884.03125 619.839844 877.835938 615.847656 877.835938 Z M 645.257812 774.285156 C 641.265625 774.285156 641.265625 780.476562 645.257812 780.476562 C 649.246094 780.476562 649.25 774.285156 645.257812 774.285156 Z M 647.011719 795.929688 C 643.019531 795.929688 643.019531 802.125 647.011719 802.125 C 651.003906 802.125 651.003906 795.929688 647.011719 795.929688 Z M 736.875 784.160156 C 736.710938 784.0625 736.53125 784.007812 736.34375 783.988281 C 736.277344 783.917969 736.203125 783.851562 736.121094 783.796875 C 735.882812 783.65625 735.625 783.59375 735.347656 783.613281 C 735.070312 783.628906 734.820312 783.722656 734.601562 783.894531 C 734.382812 784.0625 734.226562 784.277344 734.140625 784.542969 C 734.050781 784.804688 734.042969 785.070312 734.117188 785.339844 L 734.132812 785.339844 C 734.214844 785.636719 734.363281 785.898438 734.578125 786.117188 C 734.792969 786.339844 735.050781 786.496094 735.347656 786.585938 C 735.75 786.714844 736.152344 786.710938 736.554688 786.570312 C 736.890625 786.460938 737.152344 786.261719 737.34375 785.964844 C 737.429688 785.8125 737.488281 785.652344 737.511719 785.476562 C 737.535156 785.304688 737.527344 785.132812 737.480469 784.964844 C 737.4375 784.792969 737.363281 784.640625 737.257812 784.5 C 737.152344 784.359375 737.023438 784.246094 736.871094 784.160156 Z M 668.988281 863.054688 C 664.996094 863.054688 664.996094 869.246094 668.988281 869.246094 C 672.976562 869.246094 672.976562 863.054688 668.988281 863.054688 Z M 743.546875 833.132812 C 747.53125 833.132812 747.539062 826.9375 743.546875 826.9375 C 739.554688 826.9375 739.554688 833.132812 743.546875 833.132812 Z M 610.703125 1334.738281 C 606.710938 1334.738281 606.710938 1340.929688 610.703125 1340.929688 C 614.695312 1340.929688 614.691406 1334.738281 610.703125 1334.738281 Z M 608.519531 1311.265625 C 604.527344 1311.265625 604.527344 1317.460938 608.519531 1317.460938 C 612.511719 1317.460938 612.511719 1311.265625 608.519531 1311.265625 Z M 621.621094 1314.542969 C 617.628906 1314.542969 617.628906 1320.734375 621.621094 1320.734375 C 625.613281 1320.734375 625.613281 1314.542969 621.617188 1314.542969 Z M 725.339844 1345.113281 C 721.347656 1345.113281 721.347656 1351.304688 725.339844 1351.304688 C 729.332031 1351.304688 729.332031 1345.113281 725.339844 1345.113281 Z M 720.972656 1317.816406 C 716.984375 1317.816406 716.980469 1324.011719 720.972656 1324.011719 C 724.964844 1324.011719 724.960938 1317.816406 720.972656 1317.816406 Z M 747.179688 1347.839844 C 743.1875 1347.839844 743.1875 1354.035156 747.179688 1354.035156 C 751.171875 1354.035156 751.164062 1347.839844 747.171875 1347.839844 Z M 722.414062 1010.566406 C 726.398438 1010.566406 726.40625 1004.371094 722.414062 1004.371094 C 718.421875 1004.371094 718.414062 1010.566406 722.40625 1010.566406 Z M 711.125 959.878906 C 707.132812 959.878906 707.132812 966.070312 711.125 966.070312 C 715.117188 966.070312 715.109375 959.878906 711.117188 959.878906 Z M 742.996094 965.191406 C 739.003906 965.191406 739.003906 971.386719 742.996094 971.386719 C 746.988281 971.386719 746.984375 965.191406 742.992188 965.191406 Z M 508.601562 845.921875 C 508.769531 845.632812 508.878906 845.324219 508.921875 844.996094 C 508.96875 844.667969 508.949219 844.34375 508.863281 844.019531 C 508.78125 843.699219 508.636719 843.40625 508.4375 843.140625 C 508.234375 842.875 507.992188 842.660156 507.707031 842.492188 L 507.105469 842.242188 C 506.777344 842.132812 506.445312 842.121094 506.109375 842.195312 C 506.023438 842.207031 505.9375 842.21875 505.851562 842.242188 L 505.832031 842.242188 L 505.308594 842.3125 L 504.835938 842.511719 C 504.609375 842.632812 504.421875 842.800781 504.28125 843.019531 C 504.160156 843.144531 504.074219 843.289062 504.027344 843.457031 C 503.9375 843.609375 503.894531 843.777344 503.894531 843.953125 C 503.84375 844.128906 503.84375 844.304688 503.894531 844.480469 C 503.902344 844.613281 503.925781 844.746094 503.964844 844.875 L 504.027344 845.335938 C 504.101562 845.660156 504.253906 845.941406 504.476562 846.183594 C 504.65625 846.457031 504.890625 846.675781 505.179688 846.828125 C 505.460938 847.011719 505.769531 847.109375 506.109375 847.125 C 506.605469 847.183594 507.078125 847.105469 507.53125 846.886719 C 507.980469 846.667969 508.339844 846.347656 508.601562 845.921875 Z M 487.214844 831.003906 C 487.246094 831.003906 487.28125 831.003906 487.3125 831.003906 C 487.796875 831.011719 488.289062 831.046875 488.769531 831.019531 C 489.277344 831.003906 489.757812 830.875 490.207031 830.636719 C 490.355469 830.550781 490.492188 830.449219 490.617188 830.332031 C 490.742188 830.214844 490.851562 830.082031 490.941406 829.9375 C 491.03125 829.792969 491.105469 829.636719 491.15625 829.472656 C 491.210938 829.308594 491.242188 829.144531 491.253906 828.972656 C 491.261719 828.800781 491.25 828.628906 491.21875 828.460938 C 491.1875 828.292969 491.136719 828.128906 491.0625 827.976562 C 490.988281 827.820312 490.898438 827.675781 490.789062 827.542969 C 490.679688 827.410156 490.554688 827.292969 490.417969 827.191406 C 489.949219 826.855469 489.425781 826.671875 488.84375 826.648438 C 488.335938 826.628906 487.824219 826.632812 487.3125 826.660156 C 487.027344 826.65625 486.746094 826.703125 486.480469 826.808594 C 486.210938 826.910156 485.972656 827.0625 485.765625 827.261719 C 485.554688 827.460938 485.394531 827.691406 485.277344 827.953125 C 485.160156 828.21875 485.101562 828.492188 485.09375 828.78125 C 485.085938 829.070312 485.136719 829.347656 485.238281 829.617188 C 485.34375 829.882812 485.496094 830.121094 485.691406 830.332031 C 485.890625 830.539062 486.125 830.703125 486.386719 830.816406 C 486.648438 830.933594 486.925781 830.996094 487.214844 831.003906 Z M 537.789062 844.328125 C 533.796875 844.328125 533.796875 850.523438 537.789062 850.523438 C 541.78125 850.523438 541.785156 844.328125 537.789062 844.328125 Z M 510.90625 877.628906 L 511.5 878.363281 C 511.714844 878.574219 511.96875 878.710938 512.261719 878.769531 C 512.558594 878.828125 512.84375 878.800781 513.121094 878.683594 C 513.402344 878.570312 513.625 878.386719 513.789062 878.136719 C 513.957031 877.886719 514.042969 877.609375 514.042969 877.308594 C 514.046875 876.898438 513.902344 876.546875 513.605469 876.257812 L 512.871094 875.664062 C 512.59375 875.410156 512.265625 875.273438 511.890625 875.253906 C 511.707031 875.253906 511.527344 875.289062 511.359375 875.363281 C 511.1875 875.433594 511.035156 875.53125 510.90625 875.664062 C 510.777344 875.792969 510.675781 875.945312 510.605469 876.113281 C 510.535156 876.285156 510.5 876.460938 510.5 876.648438 L 510.546875 877.015625 C 510.613281 877.253906 510.734375 877.457031 510.90625 877.628906 Z M 594.902344 783.449219 C 598.886719 783.449219 598.894531 777.257812 594.902344 777.257812 C 590.910156 777.257812 590.910156 783.449219 594.902344 783.449219 Z M 783.503906 839.015625 C 779.515625 839.015625 779.511719 845.210938 783.503906 845.210938 C 787.496094 845.210938 787.492188 839.015625 783.503906 839.015625 Z M 753.621094 810.617188 C 753.851562 810.625 754.074219 810.589844 754.289062 810.507812 C 754.503906 810.425781 754.695312 810.304688 754.859375 810.148438 C 755.027344 809.988281 755.15625 809.804688 755.25 809.59375 C 755.339844 809.382812 755.386719 809.160156 755.390625 808.929688 C 755.394531 808.699219 755.351562 808.480469 755.265625 808.265625 C 755.179688 808.054688 755.054688 807.863281 754.890625 807.703125 C 754.726562 807.539062 754.539062 807.414062 754.328125 807.328125 C 754.113281 807.242188 753.890625 807.199219 753.664062 807.203125 C 753.433594 807.207031 753.210938 807.253906 753 807.34375 C 752.789062 807.4375 752.605469 807.566406 752.445312 807.730469 C 752.289062 807.898438 752.167969 808.089844 752.085938 808.304688 C 752.003906 808.519531 751.96875 808.742188 751.976562 808.972656 C 751.984375 809.1875 752.03125 809.394531 752.117188 809.59375 C 752.203125 809.789062 752.324219 809.964844 752.476562 810.117188 C 752.628906 810.269531 752.804688 810.390625 753 810.476562 C 753.199219 810.5625 753.40625 810.609375 753.621094 810.617188 Z M 522.578125 1030.476562 L 522.207031 1030.339844 C 516.074219 1028.066406 516.03125 1040.011719 522.207031 1037.722656 L 522.578125 1037.585938 C 522.957031 1037.464844 523.308594 1037.292969 523.628906 1037.0625 C 523.953125 1036.832031 524.234375 1036.554688 524.46875 1036.238281 C 524.703125 1035.917969 524.882812 1035.570312 525.007812 1035.191406 C 525.128906 1034.816406 525.191406 1034.429688 525.191406 1034.03125 C 525.191406 1033.632812 525.128906 1033.246094 525.007812 1032.871094 C 524.882812 1032.492188 524.703125 1032.144531 524.46875 1031.824219 C 524.234375 1031.507812 523.953125 1031.230469 523.628906 1031 C 523.308594 1030.769531 522.957031 1030.597656 522.578125 1030.476562 Z M 509.230469 1004.371094 C 505.238281 1004.371094 505.238281 1010.566406 509.230469 1010.566406 C 513.222656 1010.566406 513.21875 1004.371094 509.230469 1004.371094 Z M 514.117188 1262.074219 C 513.933594 1261.472656 513.574219 1261.007812 513.039062 1260.675781 C 512.472656 1260.359375 511.871094 1260.28125 511.238281 1260.445312 C 510.75 1260.574219 510.304688 1260.792969 509.898438 1261.097656 C 509.554688 1261.355469 509.269531 1261.667969 509.046875 1262.035156 C 508.972656 1262.152344 508.898438 1262.277344 508.824219 1262.398438 C 508.429688 1263.09375 508.332031 1263.828125 508.539062 1264.601562 C 508.652344 1264.992188 508.839844 1265.34375 509.105469 1265.65625 C 509.367188 1265.964844 509.683594 1266.210938 510.050781 1266.386719 C 510.417969 1266.5625 510.808594 1266.65625 511.214844 1266.667969 C 511.625 1266.679688 512.015625 1266.605469 512.390625 1266.449219 C 512.75 1266.332031 513.054688 1266.136719 513.3125 1265.859375 C 513.667969 1265.503906 513.910156 1265.085938 514.042969 1264.601562 L 514.042969 1264.59375 C 514.242188 1264.171875 514.34375 1263.730469 514.347656 1263.265625 C 514.332031 1262.855469 514.253906 1262.460938 514.117188 1262.074219 Z M 577.640625 1201.601562 C 573.652344 1201.601562 573.648438 1207.796875 577.640625 1207.796875 C 581.632812 1207.796875 581.632812 1201.601562 577.640625 1201.601562 Z M 600.214844 1228.164062 C 596.222656 1228.164062 596.222656 1234.359375 600.214844 1234.359375 C 604.207031 1234.359375 604.207031 1228.164062 600.214844 1228.164062 Z M 606.855469 1198.28125 C 602.863281 1198.28125 602.863281 1204.476562 606.855469 1204.476562 C 610.847656 1204.476562 610.847656 1198.28125 606.855469 1198.28125 Z M 486.65625 1312.382812 C 482.664062 1312.382812 482.664062 1318.578125 486.65625 1318.578125 C 490.648438 1318.578125 490.652344 1312.382812 486.65625 1312.382812 Z M 425.558594 1164.421875 C 425.320312 1164.414062 425.089844 1164.453125 424.871094 1164.535156 C 424.648438 1164.621094 424.453125 1164.742188 424.28125 1164.90625 C 424.109375 1165.070312 423.976562 1165.261719 423.882812 1165.476562 C 423.789062 1165.695312 423.738281 1165.921875 423.738281 1166.15625 C 423.734375 1166.394531 423.777344 1166.621094 423.867188 1166.839844 C 423.957031 1167.058594 424.082031 1167.253906 424.25 1167.421875 C 424.417969 1167.589844 424.613281 1167.714844 424.832031 1167.804688 C 425.050781 1167.894531 425.277344 1167.9375 425.515625 1167.933594 C 425.75 1167.933594 425.976562 1167.882812 426.195312 1167.789062 C 426.410156 1167.695312 426.601562 1167.5625 426.765625 1167.390625 C 426.929688 1167.21875 427.050781 1167.023438 427.136719 1166.800781 C 427.21875 1166.582031 427.257812 1166.351562 427.25 1166.113281 C 427.242188 1165.894531 427.191406 1165.679688 427.105469 1165.476562 C 427.015625 1165.273438 426.890625 1165.09375 426.734375 1164.9375 C 426.578125 1164.78125 426.398438 1164.65625 426.195312 1164.566406 C 425.992188 1164.480469 425.777344 1164.429688 425.558594 1164.421875 Z M 752.957031 1122.578125 C 748.964844 1122.578125 748.964844 1128.769531 752.957031 1128.769531 C 756.945312 1128.769531 756.949219 1122.578125 752.957031 1122.578125 Z M 752.957031 1099.335938 C 748.964844 1099.335938 748.964844 1105.527344 752.957031 1105.527344 C 756.945312 1105.527344 756.949219 1099.335938 752.957031 1099.335938 Z M 663.234375 1034.410156 C 659.242188 1034.410156 659.242188 1040.605469 663.234375 1040.605469 C 667.226562 1040.605469 667.226562 1034.410156 663.234375 1034.410156 Z M 660.460938 903.058594 C 656.46875 903.058594 656.46875 909.25 660.460938 909.25 C 664.453125 909.25 664.449219 903.058594 660.460938 903.058594 Z M 438.070312 1126.261719 C 434.078125 1126.261719 434.078125 1132.453125 438.070312 1132.453125 C 442.058594 1132.453125 442.0625 1126.261719 438.070312 1126.261719 Z M 406.796875 1070.453125 C 402.804688 1070.453125 402.804688 1076.648438 406.796875 1076.648438 C 410.785156 1076.648438 410.789062 1070.453125 406.796875 1070.453125 Z M 430.230469 783.699219 C 426.238281 783.699219 426.238281 789.894531 430.230469 789.894531 C 434.222656 789.894531 434.222656 783.699219 430.230469 783.699219 Z M 413.875 806.480469 C 409.882812 806.480469 409.882812 812.675781 413.875 812.675781 C 417.863281 812.675781 417.867188 806.480469 413.875 806.480469 Z M 433.734375 1054.746094 C 429.742188 1054.746094 429.746094 1060.941406 433.734375 1060.941406 C 437.726562 1060.941406 437.726562 1054.746094 433.734375 1054.746094 Z M 756.625 1026.292969 C 752.632812 1026.292969 752.632812 1032.488281 756.625 1032.488281 C 760.617188 1032.488281 760.617188 1026.292969 756.625 1026.292969 Z M 756.625 1026.292969 " fill-opacity="1" fill-rule="nonzero"/></g><g clip-path="url(#074b45a4e0)"><path fill="#f2f2f2" d="M 729.390625 520.078125 C 733.378906 520.078125 733.382812 526.273438 729.390625 526.273438 C 725.398438 526.273438 725.402344 520.078125 729.390625 520.078125 Z M 704.53125 548.703125 C 704.820312 548.878906 705.128906 548.964844 705.464844 548.964844 C 705.804688 548.964844 706.113281 548.878906 706.402344 548.703125 L 706.996094 548.308594 C 707.296875 548.132812 707.535156 547.890625 707.714844 547.589844 C 707.894531 547.28125 707.988281 546.945312 707.984375 546.582031 C 707.976562 546.035156 707.785156 545.5625 707.40625 545.167969 C 707.003906 544.804688 706.535156 544.609375 705.992188 544.589844 C 705.636719 544.589844 705.304688 544.675781 704.996094 544.851562 C 704.6875 545.03125 704.445312 545.273438 704.265625 545.578125 L 703.871094 546.171875 C 703.699219 546.460938 703.613281 546.773438 703.613281 547.109375 C 703.613281 547.445312 703.699219 547.757812 703.871094 548.042969 C 704.035156 548.320312 704.253906 548.539062 704.527344 548.703125 Z M 725.292969 560.792969 C 729.285156 560.792969 729.28125 554.601562 725.292969 554.601562 C 721.300781 554.601562 721.300781 560.792969 725.292969 560.792969 Z M 710.078125 509.3125 C 714.070312 509.3125 714.070312 503.121094 710.078125 503.121094 C 706.089844 503.121094 706.082031 509.308594 710.078125 509.308594 Z M 599.507812 538.167969 C 603.5 538.167969 603.5 531.972656 599.507812 531.972656 C 595.515625 531.972656 595.515625 538.167969 599.507812 538.167969 Z M 608.285156 550.457031 C 612.277344 550.457031 612.277344 544.265625 608.285156 544.265625 C 604.292969 544.265625 604.292969 550.457031 608.285156 550.457031 Z M 579.03125 562.160156 C 583.023438 562.160156 583.023438 555.964844 579.03125 555.964844 C 575.039062 555.964844 575.039062 562.160156 579.03125 562.160156 Z M 549.621094 665.710938 C 553.613281 665.710938 553.613281 659.519531 549.621094 659.519531 C 545.632812 659.519531 545.628906 665.710938 549.621094 665.710938 Z M 547.867188 644.066406 C 551.859375 644.066406 551.859375 637.871094 547.867188 637.871094 C 543.875 637.871094 543.875 644.066406 547.867188 644.066406 Z M 458.003906 655.835938 C 458.167969 655.933594 458.347656 655.988281 458.535156 656.007812 C 458.601562 656.078125 458.675781 656.144531 458.753906 656.199219 C 458.996094 656.339844 459.253906 656.402344 459.53125 656.382812 C 459.808594 656.367188 460.058594 656.273438 460.277344 656.101562 C 460.496094 655.933594 460.652344 655.71875 460.738281 655.453125 C 460.828125 655.191406 460.835938 654.925781 460.761719 654.65625 L 460.746094 654.65625 C 460.664062 654.359375 460.515625 654.097656 460.300781 653.875 C 460.085938 653.65625 459.828125 653.5 459.53125 653.410156 C 459.128906 653.28125 458.726562 653.285156 458.324219 653.425781 C 457.988281 653.535156 457.726562 653.734375 457.535156 654.03125 C 457.445312 654.183594 457.390625 654.34375 457.367188 654.519531 C 457.34375 654.691406 457.351562 654.863281 457.398438 655.03125 C 457.441406 655.203125 457.515625 655.355469 457.621094 655.496094 C 457.726562 655.636719 457.855469 655.75 458.007812 655.835938 Z M 525.890625 576.941406 C 529.882812 576.941406 529.882812 570.75 525.890625 570.75 C 521.902344 570.75 521.902344 576.941406 525.890625 576.941406 Z M 451.332031 606.863281 C 447.347656 606.863281 447.339844 613.058594 451.332031 613.058594 C 455.324219 613.058594 455.324219 606.863281 451.332031 606.863281 Z M 584.175781 105.257812 C 588.167969 105.257812 588.167969 99.0625 584.175781 99.0625 C 580.183594 99.0625 580.1875 105.257812 584.175781 105.257812 Z M 586.359375 128.730469 C 590.351562 128.730469 590.351562 122.535156 586.359375 122.535156 C 582.367188 122.535156 582.367188 128.730469 586.359375 128.730469 Z M 573.257812 125.453125 C 577.25 125.453125 577.25 119.261719 573.257812 119.261719 C 569.265625 119.261719 569.265625 125.453125 573.257812 125.453125 Z M 469.539062 94.882812 C 473.53125 94.882812 473.53125 88.691406 469.539062 88.691406 C 465.546875 88.691406 465.546875 94.882812 469.539062 94.882812 Z M 473.90625 122.175781 C 477.894531 122.175781 477.898438 115.984375 473.90625 115.984375 C 469.914062 115.984375 469.917969 122.175781 473.90625 122.175781 Z M 447.699219 92.15625 C 451.691406 92.15625 451.691406 85.960938 447.699219 85.960938 C 443.707031 85.960938 443.714844 92.15625 447.707031 92.15625 Z M 472.464844 429.429688 C 468.480469 429.429688 468.472656 435.625 472.464844 435.625 C 476.457031 435.625 476.464844 429.429688 472.472656 429.429688 Z M 483.753906 480.117188 C 487.746094 480.117188 487.746094 473.921875 483.753906 473.921875 C 479.761719 473.921875 479.769531 480.117188 483.761719 480.117188 Z M 451.882812 474.804688 C 455.875 474.804688 455.875 468.609375 451.882812 468.609375 C 447.890625 468.609375 447.894531 474.804688 451.886719 474.804688 Z M 686.277344 594.074219 C 686.109375 594.363281 686 594.671875 685.957031 595 C 685.910156 595.328125 685.929688 595.652344 686.015625 595.976562 C 686.097656 596.296875 686.242188 596.589844 686.441406 596.855469 C 686.644531 597.121094 686.886719 597.335938 687.171875 597.503906 L 687.773438 597.753906 C 688.101562 597.859375 688.433594 597.875 688.769531 597.800781 C 688.855469 597.789062 688.941406 597.777344 689.027344 597.753906 L 689.042969 597.753906 L 689.570312 597.683594 L 690.042969 597.484375 C 690.269531 597.363281 690.457031 597.195312 690.597656 596.976562 C 690.71875 596.851562 690.804688 596.707031 690.851562 596.539062 C 690.941406 596.386719 690.984375 596.21875 690.984375 596.042969 C 691.03125 595.867188 691.03125 595.691406 690.984375 595.515625 C 690.976562 595.382812 690.953125 595.25 690.914062 595.121094 L 690.851562 594.660156 C 690.777344 594.335938 690.625 594.054688 690.402344 593.8125 C 690.222656 593.539062 689.988281 593.320312 689.699219 593.167969 C 689.417969 592.984375 689.105469 592.886719 688.769531 592.871094 C 688.273438 592.8125 687.800781 592.890625 687.347656 593.109375 C 686.894531 593.328125 686.539062 593.648438 686.277344 594.074219 Z M 707.664062 608.992188 C 707.632812 608.992188 707.597656 608.992188 707.566406 608.992188 C 707.082031 608.984375 706.589844 608.949219 706.109375 608.976562 C 705.601562 608.992188 705.121094 609.121094 704.671875 609.359375 C 704.523438 609.445312 704.386719 609.546875 704.261719 609.664062 C 704.136719 609.78125 704.027344 609.914062 703.9375 610.058594 C 703.84375 610.203125 703.773438 610.359375 703.722656 610.523438 C 703.667969 610.6875 703.636719 610.851562 703.625 611.023438 C 703.617188 611.195312 703.628906 611.367188 703.660156 611.535156 C 703.691406 611.703125 703.742188 611.863281 703.816406 612.019531 C 703.890625 612.175781 703.980469 612.320312 704.089844 612.453125 C 704.199219 612.585938 704.324219 612.703125 704.460938 612.804688 C 704.929688 613.140625 705.453125 613.324219 706.035156 613.347656 C 706.542969 613.367188 707.054688 613.363281 707.566406 613.332031 C 707.851562 613.339844 708.128906 613.292969 708.398438 613.1875 C 708.667969 613.082031 708.90625 612.933594 709.113281 612.734375 C 709.324219 612.535156 709.484375 612.304688 709.601562 612.039062 C 709.71875 611.777344 709.777344 611.5 709.785156 611.214844 C 709.792969 610.925781 709.742188 610.648438 709.640625 610.378906 C 709.535156 610.113281 709.382812 609.875 709.183594 609.664062 C 708.988281 609.457031 708.753906 609.292969 708.492188 609.179688 C 708.230469 609.0625 707.953125 609 707.664062 608.992188 Z M 657.089844 595.667969 C 661.082031 595.667969 661.082031 589.472656 657.089844 589.472656 C 653.097656 589.472656 653.09375 595.667969 657.089844 595.667969 Z M 683.972656 562.367188 L 683.378906 561.632812 C 683.164062 561.421875 682.910156 561.285156 682.617188 561.226562 C 682.320312 561.167969 682.035156 561.195312 681.757812 561.3125 C 681.476562 561.425781 681.253906 561.609375 681.089844 561.859375 C 680.921875 562.109375 680.835938 562.386719 680.835938 562.6875 C 680.832031 563.097656 680.976562 563.449219 681.273438 563.738281 L 682.007812 564.332031 C 682.285156 564.585938 682.613281 564.722656 682.988281 564.742188 C 683.171875 564.742188 683.351562 564.703125 683.519531 564.632812 C 683.691406 564.5625 683.84375 564.464844 683.972656 564.332031 C 684.101562 564.203125 684.203125 564.050781 684.273438 563.882812 C 684.34375 563.710938 684.378906 563.535156 684.378906 563.347656 L 684.332031 562.980469 C 684.265625 562.742188 684.144531 562.539062 683.972656 562.367188 Z M 599.976562 656.542969 C 595.992188 656.542969 595.984375 662.738281 599.976562 662.738281 C 603.96875 662.738281 603.96875 656.542969 599.976562 656.542969 Z M 411.375 600.980469 C 415.363281 600.980469 415.367188 594.785156 411.375 594.785156 C 407.382812 594.785156 407.386719 600.980469 411.375 600.980469 Z M 441.257812 629.378906 C 441.027344 629.371094 440.804688 629.40625 440.589844 629.488281 C 440.375 629.570312 440.183594 629.691406 440.019531 629.847656 C 439.851562 630.007812 439.722656 630.191406 439.628906 630.402344 C 439.539062 630.613281 439.492188 630.835938 439.488281 631.066406 C 439.484375 631.292969 439.527344 631.515625 439.613281 631.730469 C 439.699219 631.941406 439.824219 632.128906 439.988281 632.292969 C 440.152344 632.457031 440.339844 632.582031 440.550781 632.667969 C 440.765625 632.753906 440.988281 632.796875 441.214844 632.792969 C 441.445312 632.789062 441.667969 632.742188 441.878906 632.652344 C 442.089844 632.558594 442.273438 632.429688 442.433594 632.261719 C 442.589844 632.097656 442.710938 631.90625 442.792969 631.691406 C 442.875 631.476562 442.910156 631.253906 442.902344 631.023438 C 442.894531 630.808594 442.847656 630.601562 442.761719 630.402344 C 442.675781 630.207031 442.554688 630.03125 442.402344 629.878906 C 442.25 629.726562 442.074219 629.605469 441.878906 629.519531 C 441.679688 629.433594 441.472656 629.386719 441.257812 629.378906 Z M 672.300781 409.519531 L 672.671875 409.65625 C 678.804688 411.929688 678.84375 399.984375 672.671875 402.273438 L 672.300781 402.410156 C 671.921875 402.53125 671.570312 402.703125 671.25 402.933594 C 670.925781 403.164062 670.644531 403.4375 670.410156 403.757812 C 670.175781 404.078125 669.996094 404.425781 669.871094 404.804688 C 669.75 405.179688 669.6875 405.566406 669.6875 405.964844 C 669.6875 406.363281 669.75 406.75 669.871094 407.125 C 669.996094 407.503906 670.175781 407.851562 670.410156 408.171875 C 670.644531 408.488281 670.925781 408.765625 671.25 408.996094 C 671.570312 409.226562 671.921875 409.398438 672.300781 409.519531 Z M 685.648438 435.625 C 689.640625 435.625 689.640625 429.429688 685.648438 429.429688 C 681.65625 429.429688 681.660156 435.625 685.648438 435.625 Z M 680.761719 177.921875 C 680.945312 178.523438 681.304688 178.988281 681.839844 179.320312 C 682.40625 179.636719 683.007812 179.714844 683.640625 179.550781 C 684.128906 179.417969 684.574219 179.203125 684.980469 178.898438 C 685.324219 178.640625 685.609375 178.328125 685.832031 177.957031 C 685.90625 177.84375 685.980469 177.71875 686.054688 177.597656 C 686.449219 176.902344 686.546875 176.167969 686.339844 175.394531 C 686.226562 175.003906 686.039062 174.652344 685.773438 174.339844 C 685.511719 174.027344 685.195312 173.785156 684.828125 173.609375 C 684.460938 173.433594 684.070312 173.339844 683.664062 173.328125 C 683.253906 173.316406 682.863281 173.390625 682.488281 173.546875 C 682.128906 173.664062 681.824219 173.859375 681.566406 174.136719 C 681.210938 174.492188 680.96875 174.910156 680.835938 175.394531 L 680.835938 175.402344 C 680.636719 175.824219 680.535156 176.265625 680.53125 176.730469 C 680.546875 177.140625 680.625 177.535156 680.761719 177.921875 Z M 617.238281 238.394531 C 621.226562 238.394531 621.230469 232.199219 617.238281 232.199219 C 613.246094 232.199219 613.246094 238.394531 617.238281 238.394531 Z M 594.664062 211.832031 C 598.65625 211.832031 598.65625 205.636719 594.664062 205.636719 C 590.671875 205.636719 590.671875 211.832031 594.664062 211.832031 Z M 588.023438 241.714844 C 592.015625 241.714844 592.015625 235.519531 588.023438 235.519531 C 584.03125 235.519531 584.03125 241.714844 588.023438 241.714844 Z M 708.222656 127.609375 C 712.214844 127.609375 712.214844 121.417969 708.222656 121.417969 C 704.230469 121.417969 704.226562 127.609375 708.222656 127.609375 Z M 769.320312 275.574219 C 769.558594 275.582031 769.785156 275.542969 770.007812 275.460938 C 770.230469 275.375 770.425781 275.253906 770.597656 275.089844 C 770.769531 274.925781 770.902344 274.734375 770.996094 274.519531 C 771.089844 274.300781 771.140625 274.074219 771.140625 273.839844 C 771.144531 273.601562 771.101562 273.375 771.011719 273.15625 C 770.921875 272.933594 770.796875 272.742188 770.628906 272.574219 C 770.460938 272.40625 770.265625 272.28125 770.046875 272.191406 C 769.828125 272.101562 769.601562 272.058594 769.363281 272.0625 C 769.128906 272.0625 768.902344 272.113281 768.683594 272.207031 C 768.46875 272.300781 768.277344 272.433594 768.113281 272.605469 C 767.949219 272.777344 767.828125 272.972656 767.742188 273.195312 C 767.660156 273.414062 767.621094 273.644531 767.628906 273.878906 C 767.636719 274.101562 767.6875 274.316406 767.773438 274.519531 C 767.863281 274.722656 767.988281 274.902344 768.144531 275.058594 C 768.300781 275.214844 768.480469 275.339844 768.683594 275.425781 C 768.886719 275.515625 769.101562 275.566406 769.320312 275.574219 Z M 441.921875 317.417969 C 445.914062 317.417969 445.914062 311.226562 441.921875 311.226562 C 437.933594 311.226562 437.929688 317.417969 441.921875 317.417969 Z M 441.921875 340.660156 C 445.914062 340.660156 445.914062 334.46875 441.921875 334.46875 C 437.933594 334.46875 437.929688 340.660156 441.921875 340.660156 Z M 531.644531 405.585938 C 535.636719 405.585938 535.636719 399.390625 531.644531 399.390625 C 527.652344 399.390625 527.652344 405.585938 531.644531 405.585938 Z M 534.417969 536.9375 C 538.410156 536.9375 538.410156 530.746094 534.417969 530.746094 C 530.425781 530.746094 530.425781 536.9375 534.417969 536.9375 Z M 756.808594 313.734375 C 760.800781 313.734375 760.800781 307.542969 756.808594 307.542969 C 752.820312 307.542969 752.816406 313.734375 756.808594 313.734375 Z M 788.082031 369.542969 C 792.074219 369.542969 792.074219 363.347656 788.082031 363.347656 C 784.09375 363.347656 784.089844 369.542969 788.082031 369.542969 Z M 764.648438 656.296875 C 768.640625 656.296875 768.640625 650.101562 764.648438 650.101562 C 760.65625 650.101562 760.65625 656.296875 764.648438 656.296875 Z M 781.003906 633.515625 C 784.996094 633.515625 784.996094 627.320312 781.003906 627.320312 C 777.015625 627.320312 777.011719 633.515625 781.003906 633.515625 Z M 761.144531 385.25 C 765.136719 385.25 765.132812 379.054688 761.144531 379.054688 C 757.152344 379.054688 757.152344 385.25 761.144531 385.25 Z M 438.253906 413.703125 C 442.246094 413.703125 442.246094 407.507812 438.253906 407.507812 C 434.261719 407.507812 434.261719 413.703125 438.253906 413.703125 Z M 438.253906 413.703125 " fill-opacity="1" fill-rule="nonzero"/></g><g clip-path="url(#d0dcc4d3f0)"><path fill="#f2f2f2" d="M 344.503906 231.382812 C 348.496094 231.382812 348.496094 225.191406 344.503906 225.191406 C 340.511719 225.191406 340.515625 231.382812 344.503906 231.382812 Z M 319.644531 202.757812 C 319.933594 202.585938 320.246094 202.5 320.582031 202.5 C 320.917969 202.5 321.230469 202.585938 321.515625 202.757812 L 322.109375 203.152344 C 322.410156 203.332031 322.648438 203.570312 322.828125 203.871094 C 323.011719 204.183594 323.101562 204.519531 323.101562 204.878906 C 323.09375 205.429688 322.898438 205.898438 322.519531 206.292969 C 322.121094 206.660156 321.648438 206.851562 321.105469 206.875 C 320.75 206.875 320.417969 206.785156 320.113281 206.609375 C 319.804688 206.433594 319.558594 206.191406 319.378906 205.882812 L 318.984375 205.289062 C 318.8125 205.003906 318.726562 204.691406 318.726562 204.355469 C 318.726562 204.019531 318.8125 203.707031 318.984375 203.417969 C 319.148438 203.140625 319.367188 202.921875 319.640625 202.757812 Z M 340.40625 190.667969 C 344.398438 190.667969 344.398438 196.859375 340.40625 196.859375 C 336.414062 196.859375 336.414062 190.667969 340.40625 190.667969 Z M 325.195312 242.148438 C 329.1875 242.148438 329.183594 248.34375 325.195312 248.34375 C 321.203125 248.34375 321.199219 242.152344 325.195312 242.152344 Z M 214.625 213.296875 C 218.617188 213.296875 218.617188 219.488281 214.625 219.488281 C 210.632812 219.488281 210.632812 213.296875 214.625 213.296875 Z M 223.398438 201.003906 C 227.390625 201.003906 227.390625 207.199219 223.398438 207.199219 C 219.410156 207.199219 219.40625 201.003906 223.398438 201.003906 Z M 194.144531 189.304688 C 198.136719 189.304688 198.136719 195.496094 194.144531 195.496094 C 190.152344 195.496094 190.152344 189.304688 194.144531 189.304688 Z M 164.738281 85.75 C 168.730469 85.75 168.726562 91.945312 164.738281 91.945312 C 160.746094 91.945312 160.746094 85.75 164.738281 85.75 Z M 162.980469 107.398438 C 166.972656 107.398438 166.972656 113.589844 162.980469 113.589844 C 158.988281 113.589844 158.988281 107.398438 162.980469 107.398438 Z M 73.117188 95.625 C 73.28125 95.53125 73.460938 95.472656 73.648438 95.457031 C 73.714844 95.382812 73.789062 95.320312 73.871094 95.261719 C 74.109375 95.125 74.367188 95.0625 74.644531 95.078125 C 74.921875 95.097656 75.171875 95.191406 75.390625 95.359375 C 75.613281 95.527344 75.765625 95.746094 75.855469 96.007812 C 75.941406 96.273438 75.949219 96.539062 75.875 96.804688 L 75.859375 96.804688 C 75.78125 97.105469 75.632812 97.363281 75.414062 97.585938 C 75.199219 97.808594 74.941406 97.964844 74.648438 98.050781 C 74.242188 98.183594 73.839844 98.175781 73.4375 98.035156 C 73.101562 97.929688 72.839844 97.726562 72.648438 97.429688 C 72.5625 97.28125 72.503906 97.117188 72.480469 96.945312 C 72.457031 96.769531 72.464844 96.597656 72.511719 96.429688 C 72.554688 96.261719 72.628906 96.105469 72.734375 95.96875 C 72.839844 95.828125 72.96875 95.714844 73.121094 95.625 Z M 141.003906 174.519531 C 145 174.519531 144.996094 180.714844 141.003906 180.714844 C 137.015625 180.714844 137.015625 174.519531 141.003906 174.519531 Z M 66.449219 144.597656 C 62.460938 144.597656 62.457031 138.40625 66.449219 138.40625 C 70.441406 138.40625 70.4375 144.597656 66.449219 144.597656 Z M 199.289062 646.207031 C 203.28125 646.207031 203.28125 652.398438 199.289062 652.398438 C 195.296875 652.398438 195.300781 646.207031 199.289062 646.207031 Z M 201.472656 622.734375 C 205.464844 622.734375 205.464844 628.929688 201.472656 628.929688 C 197.480469 628.929688 197.484375 622.734375 201.472656 622.734375 Z M 188.371094 626.007812 C 192.363281 626.007812 192.363281 632.203125 188.371094 632.203125 C 184.378906 632.203125 184.382812 626.007812 188.375 626.007812 Z M 84.652344 656.578125 C 88.644531 656.578125 88.644531 662.769531 84.652344 662.769531 C 80.660156 662.769531 80.664062 656.578125 84.652344 656.578125 Z M 89.019531 629.285156 C 93.011719 629.285156 93.011719 635.476562 89.019531 635.476562 C 85.027344 635.476562 85.03125 629.285156 89.023438 629.285156 Z M 62.8125 659.308594 C 66.804688 659.308594 66.804688 665.5 62.8125 665.5 C 58.820312 665.5 58.828125 659.308594 62.820312 659.308594 Z M 87.578125 322.03125 C 83.59375 322.03125 83.585938 315.839844 87.578125 315.839844 C 91.570312 315.839844 91.578125 322.03125 87.585938 322.03125 Z M 98.867188 271.347656 C 102.859375 271.347656 102.859375 277.539062 98.867188 277.539062 C 94.875 277.539062 94.882812 271.347656 98.875 271.347656 Z M 66.996094 276.65625 C 70.988281 276.65625 70.988281 282.851562 66.996094 282.851562 C 63.003906 282.851562 63.011719 276.65625 67.003906 276.65625 Z M 301.390625 157.386719 C 301.222656 157.101562 301.117188 156.792969 301.070312 156.464844 C 301.023438 156.132812 301.042969 155.808594 301.128906 155.488281 C 301.210938 155.167969 301.355469 154.871094 301.554688 154.609375 C 301.757812 154.34375 302 154.128906 302.289062 153.960938 L 302.886719 153.707031 C 303.214844 153.601562 303.546875 153.585938 303.886719 153.664062 C 303.972656 153.671875 304.054688 153.6875 304.140625 153.707031 L 304.160156 153.707031 L 304.683594 153.777344 L 305.15625 153.976562 C 305.386719 154.101562 305.570312 154.269531 305.710938 154.488281 C 305.832031 154.609375 305.917969 154.753906 305.964844 154.921875 C 306.054688 155.078125 306.101562 155.242188 306.097656 155.421875 C 306.148438 155.597656 306.148438 155.769531 306.097656 155.945312 C 306.09375 156.082031 306.070312 156.210938 306.027344 156.339844 L 305.964844 156.804688 C 305.890625 157.125 305.742188 157.40625 305.515625 157.648438 C 305.339844 157.925781 305.105469 158.140625 304.8125 158.296875 C 304.53125 158.476562 304.222656 158.578125 303.886719 158.59375 C 303.386719 158.652344 302.914062 158.570312 302.460938 158.355469 C 302.011719 158.136719 301.652344 157.8125 301.390625 157.386719 Z M 322.78125 142.46875 C 322.746094 142.46875 322.714844 142.46875 322.679688 142.46875 C 322.195312 142.476562 321.707031 142.511719 321.222656 142.488281 C 320.714844 142.472656 320.234375 142.34375 319.785156 142.101562 C 319.636719 142.019531 319.5 141.917969 319.375 141.800781 C 319.25 141.679688 319.140625 141.550781 319.050781 141.402344 C 318.960938 141.257812 318.886719 141.105469 318.835938 140.941406 C 318.78125 140.777344 318.75 140.609375 318.742188 140.4375 C 318.730469 140.265625 318.742188 140.097656 318.773438 139.929688 C 318.804688 139.757812 318.859375 139.597656 318.929688 139.441406 C 319.003906 139.285156 319.09375 139.144531 319.203125 139.011719 C 319.3125 138.878906 319.4375 138.761719 319.574219 138.660156 C 320.046875 138.320312 320.570312 138.140625 321.148438 138.117188 C 321.660156 138.09375 322.167969 138.097656 322.679688 138.128906 C 322.96875 138.121094 323.246094 138.171875 323.511719 138.273438 C 323.78125 138.378906 324.019531 138.53125 324.226562 138.730469 C 324.4375 138.925781 324.597656 139.160156 324.714844 139.421875 C 324.832031 139.683594 324.894531 139.960938 324.898438 140.25 C 324.90625 140.535156 324.859375 140.8125 324.753906 141.082031 C 324.648438 141.351562 324.5 141.589844 324.300781 141.796875 C 324.101562 142.007812 323.871094 142.167969 323.605469 142.285156 C 323.34375 142.402344 323.066406 142.460938 322.78125 142.46875 Z M 272.203125 155.796875 C 276.195312 155.796875 276.195312 161.992188 272.203125 161.992188 C 268.210938 161.992188 268.207031 155.796875 272.203125 155.796875 Z M 299.085938 189.097656 L 298.492188 189.828125 C 298.277344 190.042969 298.023438 190.175781 297.730469 190.234375 C 297.433594 190.292969 297.148438 190.265625 296.871094 190.152344 C 296.59375 190.035156 296.371094 189.851562 296.203125 189.601562 C 296.035156 189.351562 295.953125 189.078125 295.953125 188.777344 C 295.945312 188.363281 296.09375 188.015625 296.386719 187.726562 L 297.121094 187.128906 C 297.398438 186.875 297.726562 186.738281 298.101562 186.722656 C 298.289062 186.722656 298.464844 186.757812 298.636719 186.828125 C 298.804688 186.898438 298.957031 187 299.085938 187.128906 C 299.21875 187.261719 299.316406 187.410156 299.386719 187.582031 C 299.460938 187.75 299.496094 187.929688 299.496094 188.113281 L 299.445312 188.484375 C 299.378906 188.71875 299.257812 188.921875 299.085938 189.097656 Z M 215.09375 94.917969 C 211.105469 94.917969 211.097656 88.726562 215.09375 88.726562 C 219.085938 88.726562 219.082031 94.917969 215.09375 94.917969 Z M 26.488281 150.484375 C 30.480469 150.484375 30.480469 156.675781 26.488281 156.675781 C 22.496094 156.675781 22.5 150.484375 26.488281 150.484375 Z M 56.371094 122.082031 C 56.144531 122.09375 55.921875 122.054688 55.703125 121.972656 C 55.488281 121.894531 55.300781 121.773438 55.132812 121.613281 C 54.964844 121.457031 54.835938 121.269531 54.746094 121.058594 C 54.652344 120.847656 54.605469 120.628906 54.601562 120.398438 C 54.597656 120.167969 54.640625 119.945312 54.726562 119.734375 C 54.816406 119.519531 54.941406 119.332031 55.101562 119.167969 C 55.265625 119.007812 55.453125 118.882812 55.667969 118.796875 C 55.878906 118.707031 56.101562 118.667969 56.332031 118.667969 C 56.5625 118.671875 56.78125 118.71875 56.992188 118.8125 C 57.203125 118.902344 57.386719 119.03125 57.546875 119.199219 C 57.707031 119.367188 57.824219 119.558594 57.90625 119.773438 C 57.988281 119.988281 58.023438 120.210938 58.015625 120.441406 C 58.007812 120.65625 57.960938 120.863281 57.875 121.058594 C 57.789062 121.257812 57.671875 121.433594 57.519531 121.585938 C 57.367188 121.738281 57.191406 121.855469 56.992188 121.941406 C 56.792969 122.027344 56.589844 122.074219 56.371094 122.082031 Z M 287.414062 341.945312 L 287.789062 341.804688 C 293.917969 339.53125 293.960938 351.476562 287.789062 349.1875 L 287.414062 349.050781 C 287.035156 348.933594 286.6875 348.757812 286.363281 348.527344 C 286.039062 348.296875 285.761719 348.023438 285.523438 347.703125 C 285.289062 347.382812 285.109375 347.035156 284.988281 346.660156 C 284.863281 346.28125 284.800781 345.894531 284.800781 345.496094 C 284.800781 345.101562 284.863281 344.714844 284.988281 344.335938 C 285.109375 343.960938 285.289062 343.613281 285.523438 343.292969 C 285.761719 342.972656 286.039062 342.699219 286.363281 342.46875 C 286.6875 342.238281 287.035156 342.0625 287.414062 341.945312 Z M 300.765625 315.839844 C 304.753906 315.839844 304.757812 322.03125 300.765625 322.03125 C 296.773438 322.03125 296.773438 315.839844 300.765625 315.839844 Z M 295.878906 573.542969 C 296.058594 572.941406 296.417969 572.472656 296.953125 572.144531 C 297.523438 571.824219 298.121094 571.746094 298.753906 571.910156 C 299.242188 572.042969 299.691406 572.261719 300.09375 572.5625 C 300.441406 572.820312 300.722656 573.136719 300.945312 573.503906 C 301.019531 573.621094 301.09375 573.742188 301.167969 573.863281 C 301.5625 574.558594 301.660156 575.292969 301.457031 576.066406 C 301.339844 576.460938 301.152344 576.8125 300.890625 577.121094 C 300.625 577.433594 300.308594 577.675781 299.941406 577.855469 C 299.574219 578.03125 299.1875 578.125 298.777344 578.132812 C 298.371094 578.144531 297.976562 578.074219 297.601562 577.914062 C 297.242188 577.800781 296.9375 577.605469 296.683594 577.328125 C 296.328125 576.972656 296.082031 576.550781 295.949219 576.066406 L 295.949219 576.058594 C 295.75 575.640625 295.648438 575.195312 295.648438 574.730469 C 295.664062 574.324219 295.738281 573.925781 295.878906 573.542969 Z M 232.351562 513.070312 C 236.34375 513.070312 236.34375 519.261719 232.351562 519.261719 C 228.359375 519.261719 228.359375 513.070312 232.351562 513.070312 Z M 209.777344 539.632812 C 213.769531 539.632812 213.769531 545.828125 209.777344 545.828125 C 205.789062 545.828125 205.785156 539.632812 209.777344 539.632812 Z M 203.136719 509.75 C 207.128906 509.75 207.128906 515.941406 203.136719 515.941406 C 199.148438 515.941406 199.144531 509.75 203.136719 509.75 Z M 323.335938 623.851562 C 327.328125 623.851562 327.328125 630.042969 323.335938 630.042969 C 319.34375 630.042969 319.34375 623.851562 323.335938 623.851562 Z M 384.4375 475.890625 C 384.671875 475.882812 384.902344 475.917969 385.121094 476.003906 C 385.34375 476.085938 385.539062 476.210938 385.710938 476.375 C 385.882812 476.535156 386.015625 476.726562 386.109375 476.945312 C 386.203125 477.160156 386.253906 477.386719 386.257812 477.625 C 386.257812 477.859375 386.214844 478.089844 386.125 478.308594 C 386.039062 478.527344 385.910156 478.71875 385.742188 478.886719 C 385.574219 479.054688 385.382812 479.183594 385.164062 479.273438 C 384.941406 479.363281 384.714844 479.40625 384.476562 479.402344 C 384.242188 479.398438 384.015625 479.351562 383.796875 479.257812 C 383.582031 479.160156 383.390625 479.027344 383.226562 478.855469 C 383.066406 478.6875 382.941406 478.488281 382.855469 478.269531 C 382.773438 478.046875 382.734375 477.820312 382.746094 477.582031 C 382.753906 477.359375 382.800781 477.148438 382.890625 476.945312 C 382.976562 476.742188 383.101562 476.558594 383.257812 476.402344 C 383.414062 476.246094 383.59375 476.125 383.796875 476.035156 C 384 475.945312 384.214844 475.898438 384.4375 475.890625 Z M 57.035156 434.046875 C 61.03125 434.046875 61.027344 440.238281 57.035156 440.238281 C 53.046875 440.238281 53.042969 434.046875 57.035156 434.046875 Z M 57.035156 410.800781 C 61.03125 410.800781 61.027344 416.996094 57.035156 416.996094 C 53.046875 416.996094 53.042969 410.800781 57.035156 410.800781 Z M 146.757812 345.878906 C 150.75 345.878906 150.75 352.070312 146.757812 352.070312 C 142.769531 352.070312 142.765625 345.878906 146.757812 345.878906 Z M 149.53125 214.523438 C 153.523438 214.523438 153.523438 220.714844 149.53125 220.714844 C 145.539062 220.714844 145.542969 214.523438 149.53125 214.523438 Z M 371.925781 437.726562 C 375.917969 437.726562 375.914062 443.921875 371.925781 443.921875 C 367.933594 443.921875 367.933594 437.726562 371.925781 437.726562 Z M 403.195312 381.921875 C 407.1875 381.921875 407.1875 388.113281 403.195312 388.113281 C 399.207031 388.113281 399.203125 381.921875 403.195312 381.921875 Z M 379.761719 95.167969 C 383.753906 95.167969 383.753906 101.359375 379.761719 101.359375 C 375.769531 101.359375 375.769531 95.167969 379.761719 95.167969 Z M 396.121094 117.949219 C 400.113281 117.949219 400.109375 124.140625 396.121094 124.140625 C 392.128906 124.140625 392.128906 117.949219 396.121094 117.949219 Z M 376.257812 366.214844 C 380.25 366.214844 380.25 372.40625 376.257812 372.40625 C 372.265625 372.40625 372.265625 366.214844 376.257812 366.214844 Z M 53.367188 337.761719 C 57.359375 337.761719 57.359375 343.957031 53.367188 343.957031 C 49.375 343.957031 49.375 337.761719 53.367188 337.761719 Z M 53.367188 337.761719 " fill-opacity="1" fill-rule="nonzero"/></g></svg>